<svg class="main-svg" xmlns="http://www.w3.org/2000/svg" xmlns:xlink="http://www.w3.org/1999/xlink" width="650" height="512" style="" viewBox="0 0 650 512"><rect x="0" y="0" width="650" height="512" style="fill: rgb(255, 255, 255); fill-opacity: 1;"/><defs id="defs-0fa7d8"><g class="clips"><clipPath id="clip0fa7d8xyplot" class="plotclip"><rect width="490" height="332"/></clipPath><clipPath class="axesclip" id="clip0fa7d8x"><rect x="80" y="0" width="490" height="512"/></clipPath><clipPath class="axesclip" id="clip0fa7d8y"><rect x="0" y="100" width="650" height="332"/></clipPath><clipPath class="axesclip" id="clip0fa7d8xy"><rect x="80" y="100" width="490" height="332"/></clipPath></g><g class="gradients"/><g class="patterns"/></defs><g class="bglayer"><rect class="bg" x="80" y="100" width="490" height="332" style="fill: rgb(229, 236, 246); fill-opacity: 1; stroke-width: 0;"/></g><g class="layer-below"><g class="imagelayer"/><g class="shapelayer"/></g><g class="cartesianlayer"><g class="subplot xy"><g class="layer-subplot"><g class="shapelayer"/><g class="imagelayer"/></g><g class="minor-gridlayer"><g class="x"/><g class="y"/></g><g class="gridlayer"><g class="x"><path class="xgrid crisp" transform="translate(167.5,0)" d="M0,100v332" style="stroke: rgb(221, 221, 221); stroke-opacity: 1; stroke-width: 1px;"/><path class="xgrid crisp" transform="translate(255.04,0)" d="M0,100v332" style="stroke: rgb(221, 221, 221); stroke-opacity: 1; stroke-width: 1px;"/><path class="xgrid crisp" transform="translate(342.54,0)" d="M0,100v332" style="stroke: rgb(221, 221, 221); stroke-opacity: 1; stroke-width: 1px;"/><path class="xgrid crisp" transform="translate(430.03,0)" d="M0,100v332" style="stroke: rgb(221, 221, 221); stroke-opacity: 1; stroke-width: 1px;"/><path class="xgrid crisp" transform="translate(517.53,0)" d="M0,100v332" style="stroke: rgb(221, 221, 221); stroke-opacity: 1; stroke-width: 1px;"/></g><g class="y"><path class="ygrid crisp" transform="translate(0,415)" d="M80,0h490" style="stroke: rgb(221, 221, 221); stroke-opacity: 1; stroke-width: 1px;"/><path class="ygrid crisp" transform="translate(0,374.84)" d="M80,0h490" style="stroke: rgb(221, 221, 221); stroke-opacity: 1; stroke-width: 1px;"/><path class="ygrid crisp" transform="translate(0,344.47)" d="M80,0h490" style="stroke: rgb(221, 221, 221); stroke-opacity: 1; stroke-width: 1px;"/><path class="ygrid crisp" transform="translate(0,314.09000000000003)" d="M80,0h490" style="stroke: rgb(221, 221, 221); stroke-opacity: 1; stroke-width: 1px;"/><path class="ygrid crisp" transform="translate(0,273.94)" d="M80,0h490" style="stroke: rgb(221, 221, 221); stroke-opacity: 1; stroke-width: 1px;"/><path class="ygrid crisp" transform="translate(0,243.57)" d="M80,0h490" style="stroke: rgb(221, 221, 221); stroke-opacity: 1; stroke-width: 1px;"/><path class="ygrid crisp" transform="translate(0,213.19)" d="M80,0h490" style="stroke: rgb(221, 221, 221); stroke-opacity: 1; stroke-width: 1px;"/><path class="ygrid crisp" transform="translate(0,173.04000000000002)" d="M80,0h490" style="stroke: rgb(221, 221, 221); stroke-opacity: 1; stroke-width: 1px;"/><path class="ygrid crisp" transform="translate(0,142.66)" d="M80,0h490" style="stroke: rgb(221, 221, 221); stroke-opacity: 1; stroke-width: 1px;"/><path class="ygrid crisp" transform="translate(0,112.28999999999999)" d="M80,0h490" style="stroke: rgb(221, 221, 221); stroke-opacity: 1; stroke-width: 1px;"/></g></g><g class="zerolinelayer"/><path class="xlines-below"/><path class="ylines-below"/><g class="overlines-below"/><g class="xaxislayer-below"/><g class="yaxislayer-below"/><g class="overaxes-below"/><g class="plot" transform="translate(80,100)" clip-path="url(#clip0fa7d8xyplot)"><g class="scatterlayer mlayer"><g class="trace scatter trace925c31" style="stroke-miterlimit: 2; opacity: 1;"><g class="fills"/><g class="errorbars"/><g class="lines"><path class="js-line" d="M0,165.46L0.12,117.32L0.49,170.34L0.74,155L0.86,141.13L1.1,154.11L1.23,117.98L1.35,171.55L1.47,109.67L2.08,119.05L2.21,146.89L2.33,112.36L2.7,168.95L2.94,124.12L3.06,137.96L3.43,102.14L3.55,149.48L3.68,113.6L3.8,152.78L4.78,112.61L4.9,139.74L5.15,130.36L5.27,148.48L5.64,108.25L5.76,172.12L6,135.78L6.13,138.59L6.25,137.41L6.37,159.04L6.74,113.67L6.86,160.42L6.98,134.93L7.11,166.14L7.47,167.64L7.84,126.42L7.96,181.67L8.7,126.54L8.82,176.09L8.94,133.52L9.07,184.9L9.56,148.55L9.68,186.85L9.92,191.13L10.05,137.66L10.42,165.75L10.54,175.46L10.91,128.98L11.03,184.63L11.27,172.63L11.4,146.82L11.64,173.82L11.76,139.63L11.89,149.14L12.01,119.13L12.13,168.91L12.74,166.49L12.87,128.98L12.99,151.6L13.36,117.4L13.6,138.76L13.72,128.44L14.21,106.44L14.34,168.43L14.46,127.58L14.58,141.97L14.83,127.51L14.95,155.57L15.32,117.25L15.44,166.82L15.68,159.58L15.81,161.6L16.17,124.73L16.3,170.67L16.42,126.24L16.54,177.78L17.28,125.17L17.4,177.11L17.52,127.65L18.13,136.51L18.26,174.84L18.38,130.69L18.5,178.89L18.99,155.65L19.11,167L19.36,176.74L19.48,127.97L19.73,132.42L19.85,172.27L20.46,177.43L20.59,124.41L20.71,187.21L21.44,124.75L21.57,152.5L21.69,117.64L21.81,173.94L22.3,140.84L22.42,165.04L22.79,112.66L22.91,167.39L23.16,164.48L23.28,159.95L23.77,167.14L23.89,124.26L24.02,173.77L24.75,135.44L24.87,182.21L25,132.72L25.12,186.64L25.61,154.13L25.73,176.51L26.1,137.07L26.22,193.62L26.47,171.04L26.59,178.12L26.96,140.67L27.08,196.76L27.2,141.54L27.32,197.87L28.06,136.39L28.18,191.88L28.92,135.53L29.04,167.13L29.16,123.21L29.28,182.36L29.77,141.44L29.9,169.57L30.27,115.48L30.63,169.99L30.76,149.87L30.88,150.12L31,170.68L31.37,119.57L31.74,136.74L31.86,151.46L32.35,162.53L32.47,119.25L32.59,161.49L33.33,110.13L33.45,149.19L33.57,117.07L33.7,166.48L34.19,135.9L34.31,152.54L34.43,119.84L34.8,179.57L34.92,145.74L35.04,160.87L35.29,143.88L35.41,169.51L35.53,119.48L35.9,180.44L36.27,172.26L36.39,133.33L36.64,124.15L36.76,177.6L37.13,152.93L37.25,160.04L37.37,163.18L37.49,139.84L37.62,165.34L37.74,123.83L38.23,148.86L38.35,152.47L38.47,158.22L38.6,128.19L38.84,121.59L38.96,177.06L39.33,145.7L39.45,135.74L39.94,112.79L40.07,170.83L40.19,119.97L40.68,166.9L40.93,159.91L41.05,118.51L41.17,173.9L41.78,167.43L41.91,129.98L42.15,124.51L42.27,175.89L42.64,163.82L42.76,149.41L43.25,135.77L43.38,189.52L43.5,152.08L43.62,168.49L43.87,153.24L43.99,188.46L44.11,140.09L44.48,194.37L44.85,180.14L44.97,147.62L45.09,183.31L45.21,129.13L45.7,149.35L45.83,146.53L46.32,121.46L46.44,173.22L46.56,112.84L46.68,155.6L47.17,101.21L47.3,136.74L47.42,99.09L47.79,145.5L48.15,139.93L48.28,106.47L48.4,147.35L48.52,96.12L49.01,131.97L49.13,122.03L49.26,141.88L49.62,97.72L49.75,137.89L49.87,101.75L50.48,99.39L50.61,143.93L50.73,85.46L51.46,147.07L51.59,100.59L51.95,156.32L52.32,142.74L52.44,119.51L52.69,107.73L53.06,158.54L53.18,131.51L53.3,132.57L53.79,108.65L53.91,151.05L54.04,109.82L54.16,159.66L54.77,142.82L54.89,89.92L55.02,149.99L55.63,132.36L55.75,107.41L56,86.81L56.12,119.88L56.49,110.08L56.61,101.54L56.98,124.48L57.1,79.9L57.22,113.39L57.34,83.17L57.83,123.29L58.08,114.21L58.2,86.18L58.45,83.63L58.94,124.79L59.06,86.86L59.18,134.74L59.79,133.89L59.92,102.27L60.16,91.92L60.53,142.98L60.65,116.76L60.78,122.91L61.02,100.41L61.14,136.9L61.27,93.6L61.51,90.8L61.63,130.09L62,119.56L62.12,109.24L62.37,81.88L62.49,134.57L62.86,110.82L62.98,86.98L63.47,78.11L63.59,116.42L63.72,83.69L63.84,116.52L64.33,72.16L64.45,101.13L64.57,64.85L64.94,111.64L65.31,98.71L65.43,68.78L65.68,64.26L65.8,117.58L66.17,98.34L66.29,91.29L66.53,63.55L66.9,112.56L67.02,81.23L67.15,101.36L67.64,69.1L67.76,88.75L67.88,69.89L68,111.31L68.62,92.62L68.74,66.55L69.11,104.65L69.47,99.05L69.6,85.57L69.84,69.51L70.21,107.49L70.33,90.34L70.46,98.13L70.58,112.99L70.95,66.8L71.07,95.83L71.19,68.44L71.68,117.07L71.93,114.22L72.05,62L72.78,119.25L72.91,71.97L73.27,102.8L73.64,93.02L73.76,86.85L74.13,118.46L74.25,70.08L74.38,115.05L74.5,84.61L74.87,83.11L74.99,108.48L75.11,69.85L75.48,119.53L75.85,97.17L75.97,81.76L76.21,61.1L76.58,107.81L76.7,75.57L77.19,100.09L77.32,59.39L77.44,93.2L77.56,63.01L78.3,100.13L78.42,59.31L79.15,99.53L79.28,72.15L79.64,109.62L79.77,62.08L80.01,79L80.14,61.92L80.38,60.68L80.75,112.19L80.99,90.92L81.12,82.1L81.73,52.93L81.85,101.35L82.1,104.02L82.59,60.04L82.71,75.92L82.83,58.37L82.95,83.8L83.44,71.81L83.57,84.44L83.69,39.91L84.06,88.75L84.3,63.58L84.42,61.41L84.55,58.73L84.67,79.2L85.04,33.28L85.4,56.48L85.53,62.84L85.65,51.52L86.02,82.41L86.14,52.71L86.26,83.85L87,50.1L87.12,90.34L87.24,56.4L87.36,96.87L87.85,69.7L87.98,94.4L88.1,54.2L88.71,82.87L88.83,90.07L89.08,93.59L89.45,52.92L89.69,65.06L89.81,67.46L89.94,89.84L90.31,35.98L90.43,64.67L90.55,48.13L91.04,72.93L91.16,44.98L91.29,66.62L91.41,32.86L91.53,65.76L92.14,63.27L92.27,37.36L92.63,69.86L93,60.35L93.12,52.28L93.37,42.45L93.49,86.41L93.86,56.85L93.98,58.08L94.23,45.72L94.35,70.5L94.47,35.51L94.84,92.13L95.08,65.47L95.21,64.41L95.57,46L95.7,86.45L95.82,50.29L95.94,84.9L96.55,86.3L96.68,48.58L96.8,72.41L96.92,46.65L97.04,80.43L97.53,63.29L97.66,93.32L97.78,56.07L98.39,63.43L98.51,80.29L98.76,96.21L99.13,51.51L99.25,79.97L99.37,76.48L99.86,88.99L99.98,40.7L100.23,46.75L100.35,61.09L100.72,67.01L100.84,35.12L100.97,82.96L101.33,46.14L101.7,51.47L101.82,73.63L102.19,39.57L102.56,66.6L102.68,72.8L102.93,85.88L103.29,44.49L103.54,50.77L103.66,75.5L103.91,60.98L104.03,85.36L104.15,56.84L104.27,90.23L104.4,51.94L104.89,80.93L105.01,64.1L105.25,54.17L105.38,95.2L105.74,76.33L105.87,83.44L106.36,60.92L106.48,104.59L106.6,66.24L106.72,106.8L107.21,65.84L107.34,106.14L107.46,61.92L107.58,100.4L108.19,83.68L108.32,54.62L108.56,51.06L108.68,97.35L109.05,58.99L109.17,36.63L109.66,16.6L110.16,78.13L110.28,60.81L110.77,39.52L110.89,81.99L111.01,56.33L111.75,96.61L111.87,58.15L112.36,93.58L112.61,92.19L112.73,55.35L112.85,102.01L113.46,91.65L113.59,79.53L113.83,74.04L113.95,114.93L114.32,93.39L114.44,90.82L114.69,79.65L114.81,103.75L114.93,66.94L115.06,125.31L115.67,93.98L115.79,63.27L115.91,97.37L116.04,50.31L116.53,63.79L116.65,55.95L116.77,78.24L117.14,33.65L117.26,63.94L117.38,37.64L117.51,62L118,21.81L118.12,45.68L118.24,18.58L118.36,67.13L118.98,55.36L119.1,20.57L119.83,50.14L119.96,26.04L120.57,65.83L120.82,53.22L120.94,60.09L121.31,25.03L121.43,64.43L121.55,33.67L121.67,68.85L122.41,17.08L122.53,60.17L122.65,35.26L122.78,73.55L123.27,39.4L123.39,68.44L123.51,31.98L123.63,69.66L124.12,42.74L124.25,63L124.61,36.67L124.74,81.98L124.86,44.15L124.98,69.5L125.72,37.3L125.84,75.73L126.57,43.71L126.7,78.2L126.82,34.09L127.43,43.52L127.55,62.46L127.68,30.76L128.04,84.08L128.17,55.46L128.29,71.17L128.41,72.41L128.53,56.13L128.78,41.45L129.15,83.42L129.27,63.92L129.39,57.65L129.88,53.92L130.01,97.03L130.25,94.47L130.37,80.77L130.62,97.86L130.74,73.06L130.86,97.35L130.99,63.26L131.11,112.77L131.72,102.74L131.84,74.56L131.97,89.78L132.33,56.71L132.46,76.67L132.58,65.97L132.82,74.43L132.95,66.56L133.07,97.9L133.44,48.2L133.8,56.05L133.93,81.76L134.42,85.48L134.54,45.04L134.66,59.32L134.78,60.86L135.03,70.53L135.15,49.58L135.27,86.92L135.4,48.61L135.52,89.39L136.01,48.86L136.13,69.41L136.5,41.68L136.62,77.3L136.87,63.85L136.99,70.94L137.36,41.86L137.48,79.1L137.6,42.72L137.72,75.44L137.85,56.21L138.34,86.15L138.46,56.89L138.58,85.52L138.7,59.25L138.83,93.25L139.32,62.82L139.44,78.18L139.56,54.22L139.93,109.02L140.05,95.25L140.18,85.78L140.67,65.62L140.79,113.14L140.91,76.72L141.4,108.5L141.65,102.2L141.77,70.6L142.14,110.56L142.5,107.69L142.63,84.99L142.75,110.79L142.87,70.59L143.36,92.52L143.48,84.75L143.73,71.97L144.1,109.86L144.22,71.02L144.71,112.15L144.83,73.99L144.95,113.86L145.57,89.98L145.69,77.87L145.93,68.5L146.67,114.53L146.79,84.01L147.04,75.67L147.4,110.5L147.53,99.69L147.65,87.21L148.14,75.97L148.51,119.93L148.63,95.89L149,91.66L149.12,125.69L149.24,77.52L149.36,121.44L149.98,119.78L150.1,93.33L150.59,84.58L150.71,119.18L150.84,105.78L150.96,103.75L151.2,80.62L151.33,114.54L151.45,81.13L151.57,120.61L152.06,109.19L152.18,117.76L152.55,68.48L152.92,89.62L153.04,94.91L153.41,71.45L153.53,107.45L153.9,77.18L154.02,78.38L154.27,52.7L154.39,62.95L154.51,18.64L154.88,104.09L155.37,71.88L155.49,88.46L155.61,49.41L155.98,94.73L156.1,79.49L156.23,96.59L156.47,85.84L156.59,113.62L156.72,80.71L157.45,124.03L157.57,89.55L157.82,83.25L158.19,123.88L158.31,105.68L158.43,101.53L158.68,96.5L159.04,138.3L159.17,97.83L159.9,133.48L160.03,92.61L160.76,133.95L160.88,81.98L161.25,122.99L161.62,114.03L161.74,90.1L162.23,86.07L162.35,132.57L162.6,119.98L162.72,121.55L163.09,87.4L163.21,132.34L163.33,91.41L163.46,140.1L164.19,96.23L164.31,135.04L164.44,96.47L164.56,145.63L165.05,116.94L165.17,144.64L165.42,149.41L165.54,95.96L165.91,124.95L166.03,142.88L166.52,161.58L166.89,106.7L167.01,107.18L167.5,82.66L167.87,151.32L167.99,130.85L168.6,81.43L168.85,99.91L168.97,134.64L169.34,139.2L169.7,86.99L169.83,128.42L170.44,137.26L170.56,94.35L170.69,137.78L170.81,87.9L170.93,139.79L171.42,105.55L171.54,130.03L171.91,81.04L172.28,100.71L172.4,112.06L172.52,71.43L172.89,126.09L173.01,93.38L173.14,121.09L173.63,97.88L173.75,143.52L173.87,91.76L174.48,130.78L174.61,133.22L174.85,140.6L174.97,98.42L175.22,104.29L175.34,156.07L176.08,87.64L176.2,147.83L176.81,151.59L176.93,97.4L177.06,130.67L177.18,97.32L177.55,141.24L177.79,127.96L177.91,147.34L178.28,94.46L178.65,132.18L178.77,129.94L179.26,151.72L179.38,103.46L179.51,152.27L179.63,101.94L180.24,104.13L180.37,152.22L180.49,103.54L181.1,108.68L181.22,128.47L181.35,88.28L181.71,149.42L181.84,119.94L181.96,137.45L182.08,146.27L182.2,108.36L182.33,142.53L182.45,102.55L182.69,101.91L183.18,151.77L183.31,128.97L183.67,162.97L183.8,106.19L184.04,128.62L184.16,123.21L184.65,121.09L184.78,167.33L185.02,150.99L185.14,131.68L185.51,103.99L185.63,148.64L185.76,111.2L185.88,161.47L186.37,99.66L186.61,108.02L186.74,141.95L186.98,150.26L187.35,74.66L187.47,97.04L187.59,132.09L187.84,151.59L187.96,96.41L188.21,113.97L188.33,138.36L188.45,139.61L188.57,114.72L189.06,100.61L189.19,150.72L189.43,140.67L189.55,152.41L189.92,104.49L190.05,157.85L190.41,125.42L190.54,123.77L190.9,155.97L191.03,107.69L191.15,133.98L191.27,109.58L191.39,164.16L192.01,141.53L192.13,112.4L192.37,110.64L192.86,159.31L192.99,134.68L193.11,170.52L193.23,123.09L193.72,144.23L193.84,139.73L194.33,119L194.46,184.64L194.58,132.22L194.7,174.36L195.19,126.19L195.31,166.93L195.44,115.82L195.56,175.76L196.17,160.84L196.29,108.43L196.66,156.53L197.03,141.76L197.15,117.27L197.64,108.27L197.76,163.74L197.89,124.51L198.01,134.8L198.25,119.35L198.38,151.45L198.5,103.52L199.23,157.93L199.36,126.56L199.6,118.76L199.97,176.86L200.09,136.55L200.22,150.38L200.71,131.62L200.83,183.92L200.95,137.55L201.07,180.04L201.69,174.05L201.81,130.09L201.93,192.44L202.54,175.68L202.67,140.8L202.79,174.34L202.91,133.38L203.4,159.79L203.52,146L203.65,146.84L203.77,122.04L203.89,177.68L204.01,116.82L204.5,152.44L204.63,139.85L205.12,114.27L205.24,177.09L205.36,124.09L205.97,112.36L206.1,163.8L206.22,113.01L206.34,157.38L206.95,140.76L207.08,105.73L207.32,103.45L207.44,157.41L207.81,139.69L207.93,115.79L208.06,156.3L208.42,108.78L208.67,131.49L208.79,129.8L209.16,142.77L209.28,92.12L209.4,154.35L210.02,160.81L210.14,112.03L210.26,149.87L210.39,116.06L210.51,162.16L211,145.08L211.12,172.21L211.49,111.75L211.86,154.8L211.98,157.13L212.47,176.88L212.59,124.71L212.71,179.68L213.45,123.48L213.57,163.73L213.69,121.43L213.82,182.76L214.31,138.26L214.43,146.21L214.67,169.81L214.8,116.86L215.04,138.85L215.16,150.59L215.29,162.13L215.41,134.08L215.53,161.39L215.65,110.78L216.02,169.62L216.39,168.87L216.51,135.67L216.76,123.1L217.12,179.93L217.25,152.71L217.37,150.15L217.86,133.66L217.98,183.03L218.1,139.25L218.23,190.36L218.84,180.22L218.96,136.6L219.08,192.64L219.7,180.55L219.82,152.24L220.07,139.26L220.19,198.75L220.56,162.24L220.68,156.14L221.17,137.28L221.29,199.03L221.41,144.14L222.03,132.95L222.15,187.41L222.27,132.69L222.39,187.02L223.01,159.86L223.13,126.07L223.37,123.92L223.5,185.57L223.86,170L223.99,134.5L224.48,122.6L224.6,174.23L224.72,145.52L224.84,158.58L224.97,172.22L225.09,136.35L225.21,158.43L225.33,121.24L225.46,176.86L225.58,117.24L226.07,169.51L226.19,139.68L226.68,120.85L226.8,171.01L226.93,140.3L227.05,146.64L227.54,126.13L227.66,183.01L227.78,125.72L228.52,176.35L228.64,132.05L228.76,181.79L229.38,175.9L229.5,128.59L229.74,125.3L229.87,171.58L230.24,165.8L230.36,137.57L230.73,179.65L230.85,115.81L230.97,165.76L231.09,132.36L231.58,167.14L231.71,108.43L231.83,157.18L231.95,119.08L232.69,164.83L232.81,122.4L233.05,118.14L233.18,171.12L233.54,164.79L233.67,142.85L233.91,130.31L234.03,183.07L234.4,151.57L234.52,163.18L234.89,184.15L235.01,138.58L235.14,182.24L235.26,144.27L235.38,193.93L235.99,184.52L236.12,140.92L236.24,202.41L236.85,184.03L236.97,153.53L237.1,200.77L237.22,146L237.71,181.02L237.83,173.37L238.32,140.55L238.44,208.06L238.57,150.2L239.06,190.4L239.18,143.48L239.3,189.76L239.42,124.24L239.55,182.56L240.16,178.11L240.28,131.04L240.53,127.75L240.65,181.65L241.02,171.24L241.14,143.65L241.39,121.48L241.51,178.73L241.88,147.81L242,157.3L242.12,157.86L242.24,139.43L242.49,121.44L242.61,175.52L242.98,151.21L243.1,159.51L243.59,130.81L243.71,180.36L243.84,129.65L244.57,187.57L244.69,129.2L244.82,192.98L245.43,187.4L245.55,143.32L245.8,133.06L245.92,196.11L246.29,173.1L246.41,163.4L246.9,134.56L247.02,197.55L247.14,146.24L247.63,180.04L247.76,135.61L247.88,177.25L248,131.71L248.12,185.16L248.74,174.85L248.86,129.63L248.98,179.94L249.1,122.22L249.59,170.11L249.72,141.33L249.96,122.86L250.33,174.72L250.45,143.15L250.58,157.01L250.82,141.21L250.94,173.31L251.07,127.94L251.31,127.7L251.43,176.77L251.8,171.58L251.92,142.27L252.17,131.39L252.29,187.82L252.66,162.23L252.78,166.3L253.27,139.02L253.39,194.47L253.52,145.47L254.25,195.85L254.37,140.37L254.5,209.14L255.11,195.27L255.23,149.63L255.48,140.97L255.6,204.91L255.97,182.26L256.09,163.14L256.58,135.66L256.7,190.33L256.82,148.65L257.31,182.54L257.44,130.94L257.56,181.81L257.68,124.32L257.8,184.84L258.42,173.01L258.54,125.35L258.78,122.15L258.91,173.19L259.27,153.84L259.4,128.93L259.64,119.63L259.76,177.1L260.13,145.77L260.26,151.2L260.38,158.97L260.5,132.93L260.62,157L260.75,122.93L261.11,178.67L261.48,175.62L261.6,139.06L261.85,118.87L261.97,175.58L262.34,154.66L262.46,157.11L262.83,177.06L262.95,126.32L263.07,166.77L263.2,125.87L263.93,179.93L264.05,123.5L264.18,168.65L264.79,149.47L264.91,119.83L265.16,116.42L265.28,173.78L265.65,155.47L265.77,136.73L266.26,109.38L266.38,167.31L266.5,130.68L266.87,127.31L266.99,151.7L267.12,100.94L267.48,166.9L267.85,157.29L267.97,126.04L268.34,166.58L268.46,110.87L268.71,140.59L268.83,149.49L269.32,125.47L269.44,183.41L269.57,130.08L270.3,176.16L270.43,127.81L270.79,181.94L271.16,177.06L271.28,137.87L271.53,133.76L271.65,185.26L272.02,166.39L272.14,155.2L272.63,124.68L272.75,185.2L272.88,130.01L273.49,126.25L273.61,175.41L273.73,125.22L274.1,167.01L274.47,164.17L274.59,119.04L274.71,172.28L274.84,117.57L275.33,149.37L275.45,125.08L275.69,112.03L275.82,164.14L276.18,121.85L276.31,144.74L276.43,143.3L276.55,118.39L276.8,101.63L277.16,157.25L277.29,131.07L277.41,137.62L277.53,149.39L277.65,112.29L277.78,144.59L277.9,104.35L278.02,160.53L278.63,156.44L278.76,124.37L279.25,113.34L279.37,161.02L279.61,148.81L279.74,165.98L280.11,115.74L280.47,156.71L280.6,146.28L280.84,163.03L281.21,116.2L281.33,164.71L282.07,105.09L282.19,125.58L282.31,93L282.68,137.79L282.92,93.85L283.05,113.77L283.41,72.61L283.54,131.1L283.66,101.95L283.78,120L283.9,118.26L284.03,94.56L284.15,119.66L284.52,75.11L284.76,93.99L284.88,105.05L285.01,107.21L285.13,90.79L285.25,125.52L285.37,86.38L285.86,103.65L285.99,114.49L286.35,140.8L286.48,98.17L286.6,138.46L286.72,107.36L286.84,148.37L287.33,103.93L287.46,134.98L287.58,103.45L287.7,153.78L288.31,147.98L288.44,113.87L288.8,167.07L289.17,141.92L289.29,132.05L289.78,108.67L289.91,158.99L290.03,120.26L290.15,130.85L290.4,119.76L290.52,127.51L290.64,106.34L290.77,155.19L290.89,101.59L291.38,124.81L291.5,107.29L291.62,129.17L291.99,83.68L292.11,109.98L292.24,90.24L292.48,106.06L292.6,85.75L292.73,103.91L292.85,60.32L293.22,98.29L293.58,95.92L293.71,72.59L293.95,58.29L294.07,93.64L294.44,80.92L294.56,83.86L294.69,85.06L294.81,66.02L295.05,56.92L295.42,97.23L295.54,88.64L295.67,81.47L296.16,62.46L296.28,106.15L296.4,75.49L296.89,116.6L297.14,115.32L297.26,74.02L297.38,116.1L297.99,111.96L298.12,89.75L298.36,80.02L298.48,124.25L298.85,108.03L298.97,101.6L299.22,90.25L299.59,135.62L299.71,98.24L299.83,129.13L300.32,85.69L300.45,120.61L300.57,85.38L301.3,121.73L301.43,88.25L301.67,87.39L301.79,127.45L302.16,112.5L302.28,98.48L302.41,126L302.53,77.92L302.9,105.17L303.02,85.54L303.51,119.93L303.63,79L303.88,77.55L304.37,117.4L304.49,89.73L304.61,125.57L304.98,79.73L305.22,105.34L305.35,93.2L305.59,81.96L305.96,148.92L306.2,124.68L306.33,104.11L306.69,72.07L306.82,110.39L306.94,77.3L307.06,122.29L307.31,134.92L307.8,84.05L307.92,121.75L308.04,80.91L308.16,128.28L308.65,104.24L308.78,134.28L309.39,83.95L309.51,102.5L309.63,110.82L309.88,123.89L310.25,79.87L310.37,117.8L310.98,119.71L311.11,67.86L311.23,105.01L311.35,68.4L311.84,107.61L311.96,85.45L312.09,120.51L312.21,74.6L312.33,130.9L312.82,81.22L312.94,107.77L313.31,76.24L313.43,124.63L313.56,91.7L313.68,123.07L314.05,126.75L314.41,81.72L314.54,126.05L315.15,133.22L315.27,91.08L315.39,122.18L315.52,79.87L316.01,122.46L316.13,114.39L316.25,139.38L316.5,143.93L316.62,94.19L316.99,126.71L317.11,125.12L317.35,129.64L317.48,91.94L317.72,97.11L317.84,140.41L318.58,83.57L318.7,94L318.82,85.14L318.95,131.04L319.56,111.57L319.68,71.24L320.42,117.25L320.54,78.69L320.66,109.02L320.79,70.79L321.28,98.01L321.4,93.54L321.77,112.77L321.89,75.4L322.01,106.08L322.13,87.93L322.87,137.85L322.99,91.48L323.11,134.81L323.73,121.01L323.85,102.54L324.09,92.3L324.58,128.41L324.71,113.79L325.2,94.8L325.32,147.84L325.44,106.06L325.56,134.64L326.05,85.4L326.18,131.22L326.3,84.8L326.42,138.47L327.03,136.06L327.16,95.2L327.28,134.79L327.4,91.8L327.89,110.93L328.01,95.44L328.26,67.58L328.38,128.14L328.63,106.86L328.75,89.9L328.99,98.17L329.12,78.58L329.24,97.69L329.36,61.93L329.48,102.1L330.1,84.56L330.22,66.2L330.47,55.28L330.83,110.73L330.96,91.71L331.08,79.77L331.2,103.12L331.57,59.16L331.69,102.51L331.81,71.58L332.3,107.11L332.55,103.51L332.67,59.88L333.41,109.58L333.53,72.43L333.77,67.89L333.9,105.44L334.26,85.64L334.39,68.91L334.63,60.86L334.75,93.12L335.24,83.78L335.37,78.3L335.61,93.83L335.73,61.52L335.86,96.26L335.98,59.47L336.1,102.16L336.59,66.49L336.71,92.61L336.84,58.63L336.96,96.28L337.45,75.9L337.57,91.53L337.69,60.22L338.06,104.62L338.18,75.1L338.31,97.36L338.67,102.24L339.04,67.23L339.16,116.25L339.29,84.37L339.78,116.56L339.9,89.14L340.02,118.4L340.15,72.43L340.76,107.07L340.88,135.78L341.25,81.18L341.74,101.21L341.86,102.92L342.23,144.19L342.35,93.96L342.47,134.16L342.6,93.97L343.21,86.39L343.33,130.59L343.45,84.82L343.58,132.87L344.19,106.29L344.31,71.27L344.43,106.28L344.56,66.38L345.05,100.72L345.17,79.08L345.41,54.2L345.78,100L345.9,80.94L346.03,81.93L346.15,95.19L346.27,71.84L346.39,91.03L346.52,46.88L347.25,92.23L347.37,59.31L347.62,52.25L347.74,93.86L348.11,72.52L348.23,67.6L348.72,57.85L348.84,101.15L349.09,96.94L349.21,84.64L349.58,56.91L349.7,92.75L349.82,63.83L349.95,100.19L350.56,100.98L350.68,72.77L350.81,113.17L350.93,77.07L351.05,114.47L351.54,84.1L351.66,98.27L351.79,74.37L352.15,126.7L352.4,98.68L352.52,112.63L352.77,120.93L353.13,73.67L353.26,110.22L353.38,93.18L353.62,110.61L353.75,75.68L353.87,108.15L353.99,68.06L354.73,111.46L354.85,73.57L355.09,58.12L355.46,104.52L355.71,100.56L355.83,118.68L356.44,65.8L356.56,109.82L356.69,98.25L357.05,94.69L357.18,129.1L357.3,89.48L357.42,134.51L358.03,115.72L358.16,86.4L358.4,81.44L358.52,142.84L358.89,129.34L359.01,104.54L359.26,91.96L359.63,155.5L359.87,141.02L359.99,136.74L360.24,137.69L360.61,94.89L360.73,147.87L361.47,85.78L361.59,134.71L361.71,103.26L361.83,147.83L362.32,103.58L362.45,124.03L362.69,130.34L362.81,87.23L363.18,103.94L363.3,124.12L363.92,87.86L364.16,97.78L364.28,104.48L364.41,128.29L364.77,72.35L364.9,114.78L365.02,87.5L365.75,130.81L365.88,90.57L366,132.68L366.61,117.96L366.73,87.76L366.86,128.16L367.47,126.31L367.59,106.19L368.08,93.06L368.2,142.27L368.33,113.99L368.45,129.96L369.06,141.29L369.18,94.66L369.31,139.59L369.8,101.94L370.04,104.09L370.17,148.23L370.29,103.54L370.41,151.64L370.9,110.48L371.02,143.98L371.15,92.05L371.76,125.31L371.88,137.72L372.13,144.09L372.49,90.98L372.62,127.92L372.74,111.95L373.35,98.15L373.47,141.26L373.6,108.54L374.21,107.76L374.33,135.32L374.45,105.82L374.58,161.83L375.19,157.88L375.31,120.89L375.56,111.89L375.68,166.39L376.05,156.13L376.17,147.72L376.54,175.1L376.66,115.71L376.78,163.57L376.9,130.18L377.64,168.21L377.76,128.31L378.5,160.97L378.62,118.39L378.86,111.88L378.99,165.96L379.35,132.02L379.48,114.84L379.72,108.1L379.84,156.7L380.21,121.7L380.34,138.06L380.46,135.66L380.58,106.51L380.83,99.73L381.19,146.63L381.32,111.14L381.44,123.91L381.56,146.46L381.93,96.6L382.05,134.95L382.17,113.68L382.79,112.54L382.91,156.02L383.03,115.85L383.15,165.59L383.77,164.83L383.89,124.94L384.13,118.66L384.26,177.51L384.62,146.56L384.75,141.28L385.24,123.72L385.36,168.87L385.48,136.22L386.09,123.79L386.22,177.72L386.34,120.96L386.46,178.09L387.07,173.8L387.2,128.14L387.44,118.97L387.56,172.34L387.93,156.31L388.05,126.15L388.3,118.71L388.67,172.29L388.79,145L388.91,135.39L389.03,156.62L389.4,100.68L389.52,147.84L389.65,113.2L390.14,159.32L390.38,142.87L390.51,102.14L391.24,164.38L391.36,129.24L391.61,119.3L391.98,167.66L392.1,155.82L392.22,143.94L392.34,173.55L392.71,127.25L392.83,168.21L392.96,137.97L393.57,136.39L393.69,183.58L393.81,129.85L393.94,192.43L394.55,151.42L394.67,139.14L394.92,131.47L395.04,191.13L395.41,162.98L395.53,139.87L395.9,178.44L396.02,123.6L396.14,148.9L396.26,133.43L396.51,165.25L396.63,128.79L396.75,144.36L396.88,101.57L397.12,87.94L397.24,155.54L397.61,146.5L397.73,126.8L397.98,106.67L398.35,151.07L398.47,129.77L398.59,145.28L398.84,113.77L398.96,159.17L399.08,109.79L399.45,159.47L399.69,145.35L399.82,156.47L400.19,118.87L400.31,158.4L400.43,122.78L400.55,163.52L401.17,173.14L401.29,122.84L401.41,171.21L402.02,178.46L402.15,137.55L402.27,168.42L402.39,129.53L402.51,189.93L403,149.16L403.13,185.76L403.37,191.44L403.49,132.14L403.86,171.22L403.98,179.06L404.23,182.8L404.6,131.79L404.72,189.35L405.45,130.76L405.58,178.74L405.7,131.67L406.31,132.03L406.43,169.84L406.56,123.51L406.92,174.73L407.17,156.15L407.29,169.68L407.78,178.41L407.9,121.11L408.03,168.19L408.15,153.1L408.27,151.05L408.39,174.7L408.76,119.39L409.13,164.21L409.25,161.76L409.5,174.84L409.86,120.18L409.99,186.38L410.6,186.6L410.72,137.67L410.85,181.68L410.97,132.96L411.09,191.73L411.58,158.35L411.7,191.24L412.07,137.98L412.19,195.84L412.44,178.93L412.56,187.14L412.81,188.92L413.17,139.46L413.3,196.62L414.03,126.97L414.15,191.27L414.28,135.7L414.89,136.08L415.01,166.99L415.38,128.7L415.5,174.2L415.75,151.91L415.87,171.98L416.24,120.32L416.6,174.71L416.73,149.84L416.85,147.76L416.97,170.2L417.34,116.63L417.71,160.61L417.83,158.45L418.32,174.29L418.44,125.72L418.56,185.73L418.69,134.17L419.3,139.18L419.42,175.12L419.54,127.07L419.67,191.39L420.16,157.07L420.28,173.44L420.4,136.47L420.77,189.09L421.02,176.36L421.14,177.96L421.38,185.82L421.75,133.69L421.87,189.15L422.61,131.79L422.73,188.91L422.85,126.26L423.47,137.24L423.59,167.46L423.71,119.02L424.08,172.65L424.32,153.6L424.45,165.73L424.81,113.37L425.18,166.25L425.3,149.47L425.43,150.15L425.55,165.94L425.92,118.77L426.04,176L426.28,161.61L426.41,154.93L426.65,172.68L426.77,135.53L426.9,178.77L427.02,131.15L427.14,181.57L427.63,157.79L427.75,181.13L428.12,140.02L428.24,193.82L428.37,155.35L428.49,186.25L428.73,163.77L428.86,193.07L429.22,137.95L429.35,203.34L429.59,188.09L429.71,191.21L429.96,199.02L430.33,144.69L430.57,161L430.7,177.46L430.94,158.19L431.06,188.43L431.19,140.36L431.55,194.67L431.92,173.19L432.04,142.36L432.29,130.03L432.66,183.97L432.78,156L432.9,158.42L433.02,158.51L433.15,132.31L433.39,122.47L433.76,181.14L433.88,154.76L434,150.4L434.13,171.97L434.49,117.88L434.62,168.9L434.74,132.99L435.47,179.22L435.6,126.56L436.33,179.77L436.45,135.5L436.7,130.52L436.82,188.95L437.19,169.98L437.31,151.56L437.43,184.72L437.8,130.34L437.92,182.96L438.05,147.49L438.66,136.91L438.78,185.05L438.9,133.15L439.64,183.95L439.76,132.92L440.01,130.41L440.13,184.19L440.5,172.15L440.62,140.33L440.74,175.25L440.87,126.08L441.36,145.31L441.48,152.14L441.97,122.48L442.09,175.27L442.21,130.36L442.7,170.8L442.95,164.56L443.07,121.4L443.81,177.81L443.93,135.93L444.17,128.91L444.3,187.65L444.66,169.26L444.79,146.59L445.28,133.27L445.4,194.27L445.64,182.2L445.77,177.59L446.26,192.58L446.38,141.24L446.5,189.09L447.11,194.22L447.24,144.6L447.36,198.92L447.48,136.52L448.09,153.84L448.22,188.82L448.34,137.56L448.71,195.94L448.95,168.41L449.07,174.97L449.44,127.68L449.56,184.43L449.69,133.79L449.81,179.57L450.55,111.58L450.67,154.22L450.79,121.55L451.28,164.88L451.4,127.26L451.53,161.31L451.65,111.82L452.26,133.64L452.38,152.1L452.75,107.66L452.87,163.82L453.12,144.35L453.24,127.98L453.49,140.82L453.61,105.19L453.73,150.03L453.85,106.34L453.98,163.38L454.47,138.07L454.59,160.72L454.71,115.95L455.08,173.93L455.32,153.61L455.45,165.08L455.94,179.83L456.06,127.4L456.18,182.45L456.92,122.9L457.04,185.03L457.16,129.22L457.77,129.6L457.9,168.03L458.02,116L458.39,177.81L458.63,147.29L458.75,167.22L459.12,111.55L459.24,168.13L459.49,164.58L459.61,148.82L459.86,168.86L460.23,106.96L460.35,151.93L460.47,123.77L460.96,160.45L461.08,131.39L461.21,165.76L461.33,116.63L461.45,168.56L461.94,142.24L462.06,165.82L462.43,122.66L462.55,178.99L462.8,167.5L462.92,157.7L463.41,176.8L463.53,124.06L463.66,178.36L463.78,132.33L464.27,182.35L464.39,135.85L464.51,183.54L464.64,129.75L465.25,142.64L465.37,170.09L465.74,128.88L465.86,181.86L466.11,156.21L466.23,165.72L466.6,110.13L467.09,129.3L467.21,132.36L467.58,154.33L467.7,110.34L467.82,146.22L467.94,109.15L468.43,148.82L468.68,133L468.8,102.11L468.92,151.96L469.54,138.97L469.66,98.78L469.9,97.35L470.03,148.48L470.4,133.5L470.52,124.67L470.89,146.44L471.01,98.18L471.13,136.05L471.25,114.64L471.74,151.94L471.87,98.51L471.99,128.01L472.11,90.61L472.85,152.06L472.97,97.46L473.09,145.34L473.7,136.69L473.83,107.68L474.07,88.29L474.44,134.93L474.56,104.45L474.81,130.25L475.05,127.02L475.17,92L475.3,144.3L475.91,113.77L476.03,77.66L476.4,132.28L476.77,89.62L476.89,62.47L477.5,117.82L477.75,96.37L477.87,84.87L478.11,100.04L478.24,71.08L478.36,111.07L478.48,73.6L478.6,118.55L479.09,80.52L479.22,97.46L479.34,69.28L479.71,122.11L479.83,97.24L479.95,121.57L480.08,120.8L480.2,104.74L480.32,124.98L480.69,77.76L480.81,121.55L480.93,98.07L481.18,129.63L481.55,95.54L481.67,127.77L481.79,81.79L482.53,134.99L482.65,99.5L482.77,141.49L482.89,96.28L483.38,117.89L483.51,92.55L483.75,85.37L483.87,135.49L484.24,99.22L484.36,91.79L484.61,77.59L484.73,101.19L484.85,68.32L484.98,114.32L485.59,105.94L485.71,72.28L485.96,56.21L486.69,111.35L486.81,76.36L487.06,60.37L487.18,106.56L487.55,91.58L487.67,81.86L488.16,72.23L488.28,119.41L488.41,84.39L488.53,97.37L488.77,75.83L488.9,103.7L489.26,63.11L489.39,106.53L489.63,92.28L489.75,90.33L489.88,68.53L490,81.27" style="vector-effect: none; fill: none; stroke: rgb(0, 0, 0); stroke-opacity: 1; stroke-width: 1px; opacity: 1;"/></g><g class="points"/><g class="text"/></g><g class="trace scatter tracedd4afe" style="stroke-miterlimit: 2; opacity: 1;"><g class="fills"/><g class="errorbars"/><g class="lines"><path class="js-line" d="M0,261.88L0.12,198.98L0.49,270.6L0.74,249.83L0.86,230.01L1.1,247.33L1.23,198.97L1.35,270.82L1.47,187.56L2.08,202.06L2.21,239.19L2.33,192.44L2.7,269.16L2.94,210.9L3.06,227.38L3.43,181.42L3.55,245.06L3.68,193.18L3.8,249.66L4.78,192.86L4.9,233.53L5.27,240.61L5.39,193.75L5.51,241.55L5.64,188.72L5.76,272.28L6.25,225.54L6.37,253.72L6.74,193.22L6.86,258.34L6.98,219.72L7.11,264.41L7.84,207.87L7.96,283.84L8.7,210.05L8.82,275.47L8.94,216.47L9.07,287.98L9.56,238.42L9.68,288.44L10.05,222.83L10.17,294.68L10.42,263.04L10.54,274.01L10.91,214.46L11.03,287.33L11.27,274.09L11.4,236.23L11.64,272.67L11.76,228.4L11.89,242.77L12.01,203L12.13,269.05L12.74,264.08L12.87,215.41L13.23,247.35L13.36,199.54L13.6,227.15L13.72,215.54L14.21,186.45L14.34,268.18L14.46,211.39L15.07,204.04L15.19,260.76L15.32,198.75L15.44,266.11L16.05,255.39L16.17,208.99L16.54,278.9L16.91,268.1L17.03,234.36L17.28,209.22L17.4,276.9L17.64,272.48L17.77,227.34L18.38,216.36L18.5,279.43L18.62,217.75L18.75,279.45L19.36,276.32L19.48,213.55L19.85,272.87L20.22,255.67L20.34,224.77L20.59,209.57L20.71,289.32L21.08,241.49L21.2,236.34L21.69,200.98L21.81,274.16L21.93,212.44L22.42,261.78L22.55,204.14L22.67,239.43L22.79,194.52L22.91,266.57L23.53,260.86L23.65,214.62L23.89,207.22L24.02,274.15L24.38,262.72L24.51,241.8L25,216.99L25.12,289.49L25.36,276.09L25.49,278.04L25.98,293.4L26.1,221.75L26.22,297.98L26.96,228.36L27.08,300.95L27.2,228.01L27.32,303.14L27.81,232.58L27.94,282.5L28.06,223.24L28.18,295.77L28.67,261.08L28.79,279.05L29.16,207.71L29.28,284.86L29.53,277.01L29.65,248.42L29.9,267.91L30.27,198.98L30.39,267.43L30.51,209.04L30.63,269.99L31.12,213.21L31.25,246.54L31.37,203.37L31.98,222.59L32.1,247.14L32.47,202.07L32.59,259.93L32.84,238.15L32.96,238.44L33.21,254.71L33.33,189.11L33.57,197.04L33.7,265.73L34.43,201.46L34.55,261.09L34.68,201.86L34.8,281.2L35.29,232.69L35.41,266.89L35.53,202.11L35.9,282.34L36.15,259.9L36.27,269.89L36.64,207.92L36.76,278.27L37,259.69L37.13,244.06L37.49,228.5L37.62,262.57L37.74,208.16L38.11,263.25L38.47,253.38L38.6,214.17L38.84,205.61L38.96,277.87L39.33,236.06L39.45,224.69L39.94,194L40.07,270.74L40.19,202.13L40.68,263.98L40.93,256.06L41.05,200.35L41.17,274.38L41.78,264.07L41.91,214.71L42.15,206.38L42.27,276.84L42.64,258.09L42.76,239.46L43.25,220.15L43.38,293.12L43.5,240.73L43.62,266.32L43.87,244.16L43.99,290.14L44.11,227.11L44.48,299.14L44.85,279.36L44.97,236.9L45.09,284.31L45.21,213.98L45.7,238.49L45.83,238.7L46.32,204.15L46.44,274.21L46.56,191.25L46.68,253.44L47.17,178.22L47.3,226.7L47.42,175.54L47.79,241.11L48.15,230.87L48.28,186.41L48.4,241.43L48.52,172.81L49.01,218.69L49.13,207.03L49.26,233.63L49.62,173.43L49.75,231.11L49.87,176.33L50.48,176.28L50.61,236.27L50.73,157.22L51.46,238.66L51.59,176.75L51.95,253.62L52.32,231.14L52.44,200.32L52.69,184.87L53.06,256.44L53.18,214.6L53.3,220.81L53.55,202.91L53.67,240.26L53.79,186.25L54.16,258.04L54.53,239.92L54.65,194.22L54.89,163.55L55.02,245.38L55.38,199.43L55.51,206.26L55.63,220.59L55.75,186.67L55.87,201.6L56,159.45L56.12,207.56L56.73,206.92L56.85,163.3L56.98,211.81L57.1,149.13L57.59,193.29L57.71,184.7L58.2,157.81L58.32,211.63L58.45,153.33L59.18,224.04L59.3,167.47L59.43,226.4L60.04,209.07L60.16,163.68L60.53,236.37L60.9,221.53L61.02,175.7L61.14,223.96L61.51,159.99L61.76,188.29L61.88,215.22L62.37,150.72L62.49,223.86L63.23,154.28L63.35,197.83L63.47,145.33L63.84,204.3L64.08,158.05L64.21,166.49L64.57,129.26L64.7,195.3L64.82,144.81L64.94,198.84L65.68,130.76L65.8,206.48L66.53,131.36L66.66,178.57L66.78,137.52L66.9,200.44L67.39,143.66L67.51,150.42L67.64,135.59L67.76,165.66L67.88,135.95L68,198.05L68.74,131.79L68.86,178.48L68.98,130.81L69.11,188.25L69.6,156.97L69.72,177.5L70.09,132.92L70.21,191.49L70.46,177.58L70.58,194.69L70.95,130.24L71.31,198.87L71.44,171.76L71.68,200.71L71.8,160.71L71.93,197.23L72.05,125.34L72.78,203.85L72.91,141.29L73.27,185.98L73.4,140.19L73.64,165.91L73.76,161.16L74.13,204.69L74.25,138.68L74.38,203.06L74.5,155.39L74.99,189.84L75.11,138.12L75.23,188.35L75.36,140.26L75.48,208.96L76.09,173.03L76.21,123.94L76.58,192.22L76.95,166.07L77.07,140.33L77.19,177.66L77.32,120.95L77.81,141.97L77.93,162.44L78.17,146.85L78.3,176.91L78.42,119.88L78.66,118.66L79.15,175.41L79.28,138.33L79.64,192.26L79.77,123.36L80.01,145.35L80.14,128.36L80.38,122.94L80.75,197.4L80.99,171.41L81.12,152.4L81.48,113.79L81.73,114.19L81.85,184.66L82.1,190.53L82.59,125.11L82.71,149.69L82.83,122.43L83.2,164.06L83.44,143.31L83.57,159.92L83.93,98.85L84.06,169.66L84.3,135.92L84.42,127.27L84.55,124.51L84.67,153.42L85.04,88.19L85.4,124.95L85.53,128.86L86.02,157.45L86.14,112.52L86.26,163.04L87,109.05L87.12,166.28L87.24,116.03L87.36,178.59L87.85,136.36L87.98,170.48L88.1,114.23L88.71,157.58L88.83,166.22L89.08,171.04L89.45,111.43L89.69,131L89.81,137.06L89.94,166.85L90.31,91.7L90.43,135.87L90.55,105.96L91.04,144.6L91.16,105.44L91.29,136.9L91.41,87.72L91.53,138.74L92.14,132.57L92.27,96.29L92.63,146.1L93,125.59L93.12,115.64L93.37,102.84L93.74,165.61L93.86,117.55L93.98,126.23L94.23,105.04L94.35,139.18L94.47,92.65L94.84,173.13L95.08,135.07L95.21,131.5L95.57,103.68L95.7,161.72L95.82,107.48L95.94,162.93L96.68,106.03L96.8,142.67L96.92,102.94L97.04,155.48L97.53,127.46L97.66,170.06L97.78,117.86L97.9,170.58L98.39,130.74L98.51,152.41L99,175.77L99.13,111.54L99.25,157.94L99.86,166.52L99.98,99.24L100.23,104.38L100.35,132.62L100.72,136.7L100.84,94L100.97,159.38L101.21,161.99L101.33,106.22L101.7,116.49L101.82,146.69L102.19,96.23L102.56,139.17L102.68,143.34L102.93,161.5L103.29,101.74L103.54,110.7L103.66,148.99L103.78,152.71L103.91,126.89L104.27,166.59L104.4,110.12L104.64,131.81L104.76,143.74L105.01,128.19L105.13,164.76L105.25,114.9L105.99,174.01L106.11,130.76L106.36,123.22L106.72,191.49L106.85,145.61L106.97,153.43L107.34,188.04L107.46,126.1L107.58,183.02L107.7,130.72L107.83,169.5L108.32,117.87L108.44,155.64L108.56,112.92L108.68,181.16L109.17,96.32L109.3,119.88L109.42,83.58L109.66,83.51L110.16,151.37L110.28,128.22L110.4,141.22L110.77,96.04L110.89,160.1L111.01,117.19L111.14,150.12L111.38,124.26L111.5,160.83L111.75,175.6L111.87,119.03L112.12,138.73L112.24,169.41L112.36,168.75L112.48,138.16L112.73,116.01L112.85,180.67L113.22,138.81L113.34,152.85L113.83,139.73L113.95,198.91L114.08,148.5L114.2,198.48L114.69,147.74L114.81,182.29L114.93,131.62L115.06,213.75L115.67,169.38L115.79,127.67L116.04,111.65L116.16,176.95L116.53,128.76L116.65,121.17L116.77,150.91L117.14,88.41L117.26,136.17L117.38,93.04L117.51,135.24L118,75.8L118.12,111.14L118.24,72.29L118.36,144.03L118.98,123.57L119.1,74.66L119.71,117.53L119.83,114.21L119.96,82.42L120.57,141.82L120.82,123.89L120.94,128.29L121.31,78.98L121.43,135.06L121.55,87.99L121.67,143.68L122.41,86.9L122.53,128.85L122.65,89.27L122.78,149.65L123.27,97.73L123.39,138.6L123.51,86.85L123.63,141.87L124.12,104.85L124.25,130.58L124.61,92.77L124.74,158.98L124.86,101.37L124.98,144.4L125.72,94.73L125.84,152.49L126.57,104.42L126.7,152.76L126.82,90.47L127.43,104.73L127.55,130.75L127.68,87.92L128.04,163.56L128.17,117.27L128.29,145.62L128.53,119.8L128.66,144.05L128.78,99.69L129.15,161.47L129.39,125.56L129.51,152.77L129.88,114.39L130.01,175L130.13,124.23L130.25,174.78L130.99,126.31L131.11,196.09L131.23,128.79L131.84,142.15L131.97,163.76L132.33,115.11L132.7,134.69L132.82,144.55L133.07,177.25L133.44,105.33L133.8,120.34L133.93,155.05L134.42,164.12L134.54,103.45L134.66,130.15L134.78,125.53L134.91,123.04L135.03,141.22L135.4,109.28L135.52,171.16L135.76,136.57L135.89,133.54L136.13,140.76L136.5,100.13L136.62,154.55L137.36,101.34L137.48,153.12L137.6,100.22L138.21,127.19L138.34,161.5L138.46,120.5L138.83,174.36L139.07,158.16L139.19,164.1L139.56,114.9L139.68,172.49L139.81,136.79L139.93,194.74L140.67,128.76L140.79,196.92L140.91,142.43L141.52,152.5L141.65,181.22L141.77,136.45L142.14,196.1L142.38,169.28L142.5,188.8L142.75,194.08L142.87,137.62L143.24,181.81L143.36,166.26L143.61,176.27L143.73,141.35L143.85,190.79L144.1,196L144.22,136.71L144.59,146.19L144.71,195.27L144.95,199.07L145.08,143.52L145.44,170.38L145.57,163.77L145.93,134.4L146.06,178.69L146.18,141.61L146.3,200.54L147.04,143.45L147.16,160.24L147.28,147.5L147.4,195.63L148.02,185.15L148.14,143.73L148.51,206.93L148.87,190.69L149,162.95L149.12,209.92L149.24,145.23L149.73,173.68L149.85,187.62L149.98,203.16L150.1,167.49L150.22,198.2L150.35,154.06L150.59,152.48L150.71,206.24L151.08,177.33L151.2,151.43L151.45,150.34L151.57,208.67L151.94,190.16L152.06,190.35L152.18,202.68L152.31,165.4L152.43,190.07L152.55,136.35L152.67,190.34L153.29,176.4L153.41,141L153.53,191.37L154.14,143.3L154.27,116.18L154.51,73.26L154.88,190.57L155.25,164.67L155.37,142.67L155.61,110.3L156.23,176.06L156.35,179.07L156.72,152.01L156.84,209.19L156.96,159L157.08,191.02L157.45,207.99L157.82,153.26L157.94,204.75L158.06,162.01L158.19,212.28L158.68,171.31L158.8,216L159.04,230.52L159.17,171.17L159.53,180.37L159.66,204.27L159.9,222.84L160.03,166.25L160.39,199.4L160.52,196.16L160.64,191.48L160.76,222.65L160.88,154.23L161.5,201.29L161.62,194.33L162.11,195.69L162.23,158.19L162.35,225.36L163.09,160.27L163.21,222.26L163.33,164.67L163.46,234.15L163.95,183.12L164.07,216.87L164.44,168.87L164.56,240.1L164.8,212.6L164.93,228.55L165.42,242.83L165.54,167.12L165.78,193.95L165.91,209.19L166.4,187.45L166.52,259.06L166.64,192.74L166.76,223.4L167.25,160.21L167.38,188.35L167.5,151.55L167.87,247.94L167.99,215.15L168.11,203.2L168.23,205.45L168.36,159.02L168.6,149.5L168.97,227.14L169.09,213.65L169.21,190.62L169.34,229.67L169.7,157.51L169.83,219.34L169.95,169.11L170.69,230.05L170.81,161.41L170.93,234.78L171.54,218.72L171.67,155.64L171.91,149.6L172.03,205.48L172.4,192.02L172.52,140.89L172.89,214.14L173.38,191.26L173.5,200.7L173.75,234.66L173.87,165.84L174.12,172.67L174.24,236.96L174.97,173.31L175.1,225.54L175.34,253.4L175.83,167.64L175.95,189.54L176.08,159.41L176.2,242.09L176.57,213.27L176.69,216.39L176.81,244.42L177.18,171.06L177.3,224.16L177.42,174.5L177.91,240.35L178.16,217.94L178.28,169.69L178.4,240.17L179.02,239.91L179.14,184.83L179.51,249.41L179.63,178.73L179.87,228.48L180,188.07L180.49,180.66L180.61,247.62L180.73,195.54L180.86,195.06L181.1,186.97L181.22,214.72L181.35,160.01L181.71,245.34L182.08,236.33L182.2,186.81L182.69,174.13L182.82,240.53L182.94,200.06L183.06,206.85L183.55,195.81L183.67,260.08L183.8,179.5L184.53,245.62L184.65,202.46L184.78,266.48L185.27,201.27L185.39,228.79L185.51,181.33L185.88,260.57L186.25,214.78L186.37,178.08L186.86,177L186.98,247.32L187.1,187.47L187.23,181.26L187.35,146.11L187.59,220.57L187.72,185.81L187.84,247.27L187.96,172.7L188.08,249.15L188.57,197.88L188.7,234.2L189.06,177.74L189.19,247.83L189.43,233.5L189.55,245.69L189.92,183.77L190.05,254.53L190.41,207.53L190.54,210.31L190.9,250.57L191.03,186.6L191.15,223.6L191.27,186.4L191.39,263L192.01,231.6L192.13,191.51L192.37,187.56L192.86,253.59L192.99,220.6L193.11,268.55L193.48,203.45L193.72,231.98L193.84,228.94L194.33,201.16L194.46,287.1L194.58,216.36L194.7,274.83L195.19,211.24L195.31,265.03L195.44,197.3L195.56,276.91L196.17,257.12L196.29,189.91L196.66,254.43L197.03,230.76L197.15,199.64L197.64,187.35L197.76,262.83L197.89,207.19L198.01,225.19L198.13,230.88L198.25,201.1L198.38,244.64L198.5,181.34L198.87,248.82L199.11,243.53L199.23,251.68L199.6,199.6L199.72,258.48L199.85,200.51L199.97,278.23L200.71,215.74L200.83,285.77L200.95,221.43L201.56,225.71L201.69,272.44L201.81,214.22L201.93,296.46L202.42,250.35L202.54,274.41L202.91,218.52L203.28,268.4L203.4,252.52L203.89,278.43L204.01,198.3L204.14,279.24L204.87,204.49L204.99,247.08L205.12,195.86L205.24,279.02L205.73,217.96L205.85,256.02L206.1,262.08L206.22,193.95L206.59,233.9L206.71,233.97L207.32,180.38L207.44,255.43L208.18,189.08L208.3,235.03L208.42,186.34L209.04,191.26L209.16,233.21L209.28,166.8L209.4,250.09L209.89,238.43L210.02,255.67L210.14,191.6L210.51,259.77L210.75,244.36L210.88,228.44L211.12,270.17L211.24,220.6L211.49,191.22L211.61,271.05L211.98,249.9L212.1,236.35L212.59,208.31L212.71,281.38L212.84,214.51L213.33,274.71L213.45,208.71L213.57,261.32L213.69,205.07L213.82,284.4L214.43,238.85L214.55,204.59L214.67,268.71L214.8,198.99L215.29,257.57L215.41,221.7L215.65,191.57L216.02,269.51L216.14,217.75L216.27,251.68L216.39,265.58L216.51,222.3L216.63,248.45L216.76,206.28L217.12,281.62L217.49,254.81L217.61,221.68L217.86,218.75L218.23,293.93L218.47,265.52L218.59,282.37L218.96,222.19L219.08,296.44L219.21,226.77L219.33,288.57L220.07,226L220.19,303.92L220.92,232.54L221.05,297.63L221.17,224.29L221.29,304.16L221.78,234.04L221.9,282.69L222.27,219.42L222.39,290.07L222.64,260.33L222.76,257.25L223.37,208.48L223.5,287.54L224.23,209.21L224.35,254.63L224.48,206.28L224.6,274.66L225.09,224.29L225.21,253.84L225.46,277.14L225.58,198.68L225.95,247.51L226.07,266.62L226.68,200.61L226.8,270.89L226.93,227.34L227.05,238.31L227.54,209.51L227.66,284.7L227.78,207.45L228.52,275.72L228.64,217.43L228.76,283.58L229.38,275.02L229.5,214.52L229.74,209.68L229.87,271.95L230.24,261.66L230.36,226.92L230.73,280.31L230.85,198.37L230.97,265.21L231.09,218.17L231.58,264.57L231.71,189.55L231.83,253.33L231.95,201.26L232.69,261.7L232.81,206.89L233.05,200.15L233.18,271.08L233.54,260.65L233.67,232.11L233.91,216.07L234.03,284.36L234.4,241.54L234.52,259.05L234.89,284.75L235.01,225.74L235.14,283.49L235.26,231.06L235.38,297.71L235.99,285.15L236.12,228.3L236.24,307.45L236.85,284.42L236.97,244.87L237.1,305.11L237.22,234.67L237.71,279.79L237.83,270.92L238.32,228.62L238.44,313.95L238.57,239.83L239.06,293.25L239.18,233.65L239.3,292.77L239.42,209.23L239.55,285.28L240.16,278.47L240.28,218.51L240.53,213.21L240.65,283.51L241.02,269.37L241.14,234.1L241.39,206.45L241.51,279.45L241.88,238L242,252.95L242.12,252.57L242.24,228.33L242.49,206.03L242.61,275.54L242.98,241.92L243.1,254.75L243.59,216.7L243.71,281.21L243.84,213.63L244.57,288.94L244.69,214.26L244.82,295.96L245.43,288.63L245.55,232.16L245.8,218.69L245.92,299.76L246.29,269.89L246.41,258.39L246.9,220.79L247.02,301.17L247.14,234.7L247.63,280.23L247.76,223.56L247.88,277.39L248,217.69L248.12,287.22L248.74,274.05L248.86,216.5L249.1,206.07L249.23,280.63L249.59,267.54L249.72,230.81L250.21,206.57L250.33,275.13L250.45,231.47L250.58,252.35L250.82,230.07L250.94,271.93L251.07,213.31L251.31,210.98L251.43,277.69L251.8,268.84L251.92,230.66L252.17,216.79L252.29,290.15L252.66,254.81L252.78,262.27L253.27,225.67L253.39,298.26L253.52,232.16L254.25,299.2L254.37,227.39L254.5,315.4L255.11,298.64L255.23,240.1L255.48,228.63L255.6,310.8L255.97,282.08L256.09,258.34L256.58,222.45L256.7,294.27L256.82,238.34L257.31,283.92L257.44,218.23L257.56,283.56L257.68,208.49L257.8,287.56L258.42,272.32L258.54,211.25L258.78,205.64L258.91,273.79L259.27,247.61L259.4,214.8L259.64,203.17L259.76,277.6L260.13,234.96L260.26,244.75L260.38,253.64L260.5,219.34L260.62,251.9L260.75,206.34L261.11,279.67L261.48,274.3L261.6,226.61L261.85,200.08L261.97,275.88L262.34,245.73L262.46,250.53L262.83,276.55L262.95,209.26L263.07,265.49L263.2,206.74L263.93,280.52L264.05,206.1L264.18,268.49L264.79,242.05L264.91,202.42L265.16,196.92L265.28,274.8L265.65,248.9L265.77,225.09L266.26,188.32L266.38,267.16L266.5,214.96L266.87,212.9L266.99,245.72L267.12,180.32L267.48,266.41L267.85,251.52L267.97,211.19L268.34,264.98L268.46,189.88L268.71,227.48L268.83,242.44L269.32,209.24L269.44,285.09L269.57,213.07L270.3,275L270.43,210.89L270.79,284.06L271.16,275.6L271.28,224.35L271.53,218.01L271.65,287.96L272.02,260.35L272.14,247.34L272.63,206.22L272.75,288.54L272.88,212.73L273.49,210L273.61,275.68L273.73,208.05L274.1,266.36L274.47,261.31L274.59,202.68L274.71,272.49L274.84,198.84L275.33,241.66L275.45,210.3L275.69,193.16L275.82,262.78L276.18,205.14L276.31,237.92L276.43,234.12L276.55,201.42L276.8,180.49L277.16,255.25L277.29,216.26L277.41,227.82L277.53,241.7L277.65,193.43L277.78,236.42L277.9,182.29L278.02,257.95L278.63,250.14L278.76,207.39L279.25,191.2L279.37,258.92L279.49,238.3L279.61,240.21L279.74,262.23L279.86,214.95L279.98,260.25L280.11,195.14L280.23,260.52L280.84,258.77L280.96,205.53L281.21,196.09L281.33,264.04L281.7,233.7L281.82,204.42L281.94,236.54L282.31,165.12L282.43,229.43L282.56,183.05L282.68,230.42L283.17,148.55L283.29,199.65L283.41,140.09L283.54,223.55L284.15,204.98L284.27,150.11L284.39,198.23L284.52,143.25L285.01,187.37L285.13,164.53L285.25,211.95L285.37,158.36L285.86,179.69L285.99,197.87L286.35,231.37L286.48,173.29L286.6,230.16L286.72,183.36L286.84,244.01L287.33,179.6L287.46,222.56L287.58,178.46L287.7,249.05L288.31,238.34L288.44,192.45L288.68,191.69L288.8,265.91L289.17,228.81L289.29,217.53L289.78,185.04L289.91,256.52L290.03,198.16L290.64,183.58L290.77,250.61L290.89,176.92L291.01,242.28L291.62,216.85L291.75,163.91L291.87,204.8L291.99,153.64L292.48,184.66L292.6,157.88L292.73,183.87L292.85,123.65L293.22,182.28L293.34,152.31L293.58,174.04L293.71,141.96L293.83,171.14L293.95,122.15L294.07,173.18L294.69,159.67L294.81,131.97L295.05,118.82L295.42,179.59L295.54,160.03L295.67,154.93L296.16,125.68L296.28,188.51L296.4,140.52L296.89,199.59L297.14,197.83L297.26,139.7L297.38,201.24L297.99,192.28L298.12,161.8L298.36,147.26L298.48,212.06L298.85,185.04L298.97,178.84L299.22,163.39L299.59,228.24L299.71,171.74L299.83,219.02L300.32,158.56L300.45,207.14L300.57,155.78L301.3,207.84L301.43,161.99L301.67,158.97L301.79,218.89L302.16,194.98L302.28,175.84L302.41,213.84L302.77,147.03L302.9,189.4L303.02,155.73L303.51,204.62L303.63,148.05L303.75,184.2L303.88,143.7L304.61,211.26L304.73,153.57L304.86,206.83L304.98,146.11L305.47,195.9L305.59,150.75L305.96,244.13L306.33,178.88L306.45,165.08L306.69,137.2L307.31,226.3L307.43,205.58L307.55,183L308.04,148.1L308.16,217.86L308.29,171.6L308.78,223.58L308.9,164.72L309.02,216.76L309.14,156.54L309.39,153.07L309.88,211L310,158.61L310.25,148.89L310.37,206.51L310.74,173.55L310.86,168.54L310.98,206.24L311.35,134.24L311.47,190.88L311.6,161.94L311.84,187.74L311.96,157.88L312.09,206.61L312.21,145.04L312.33,222.17L312.82,154.54L312.94,187.43L313.31,144.95L313.43,212.94L313.56,162.51L313.68,212.54L314.05,212.66L314.41,151.02L314.54,214.56L315.15,220.07L315.27,162.17L315.39,205.91L315.52,146.09L315.64,206.03L316.13,194.79L316.25,228.9L316.5,236.09L316.62,166.74L316.99,215.58L317.11,209.13L317.35,217.11L317.48,165.48L317.72,171.36L317.84,234.83L318.58,154.78L318.7,172.78L318.82,155.7L318.95,223.73L319.56,194.16L319.68,138.58L320.42,200.73L320.54,149.77L320.79,136.98L321.15,193.08L321.28,171.46L321.4,169.07L321.77,194.25L321.89,142.22L322.01,188.26L322.13,157.37L322.87,227.18L322.99,162.18L323.11,224.59L323.73,204.31L323.85,176.72L324.09,162.1L324.22,213.44L324.58,210.93L324.71,193.08L325.2,166.06L325.32,242.71L325.44,180.74L325.56,225.12L326.05,155.06L326.18,219.13L326.3,153.74L326.42,231.99L327.03,226.11L327.16,170.72L327.28,226.38L327.4,165.03L327.89,192.82L328.01,171.44L328.26,136.58L328.38,218.62L328.63,193.27L328.75,162.18L328.87,161.83L328.99,176.07L329.36,126L329.48,184.1L329.61,128.63L329.73,184.07L330.47,116.63L330.59,183.22L330.83,197.53L331.32,133.61L331.45,153.51L331.57,120.53L331.69,184.07L332.06,162.64L332.18,161.67L332.3,187.74L332.67,121.63L332.79,172.5L332.92,122.29L333.41,191.12L333.65,185.38L333.77,132.45L333.9,188.94L334.51,159.47L334.63,124.52L334.75,170.57L335.37,148.9L335.49,137.66L335.98,121.92L336.1,187.23L336.22,147.36L336.35,156.81L336.59,133.44L336.71,170.12L336.84,122.47L336.96,176.56L337.08,121.05L337.57,167.06L337.69,124.32L338.06,187.78L338.67,180.15L338.8,137.04L339.04,131.32L339.16,201.8L339.65,184.44L339.78,199.76L340.15,137.63L340.51,203.94L340.64,188.2L340.76,185.88L340.88,224.03L341.25,147.42L341.74,174.17L341.86,178.67L342.23,236.19L342.35,165.56L342.47,225.22L342.6,163.8L343.21,157.89L343.33,219.54L343.45,153.94L343.58,225.21L344.19,187.23L344.31,138.44L344.43,188.31L344.56,129.76L345.05,179.22L345.17,150.73L345.41,116.69L345.78,184.69L345.9,151.28L346.03,158.21L346.15,173.81L346.27,142.22L346.39,168.88L346.52,107.49L346.76,104.91L347.25,169.98L347.37,124.58L347.62,115.04L347.74,174.16L348.11,139.66L348.23,136.09L348.72,119.96L348.84,183.62L349.09,178.01L349.21,154.84L349.58,118.2L349.7,168.83L349.82,127.55L349.95,181.97L350.68,139.13L350.81,196.02L350.93,143.93L351.05,200.79L351.54,154.9L351.66,175.47L352.03,141.6L352.15,217.1L352.28,165.75L352.4,179.6L352.64,160.77L352.77,206.55L352.89,144.64L353.13,139.67L353.26,196.9L353.62,192.2L353.75,146.87L354.24,134.94L354.36,191.89L354.48,160.19L354.6,173.07L354.73,193.78L354.85,143.88L354.97,181.05L355.09,121.81L355.83,203.01L355.95,155.54L356.44,128.78L356.93,212.93L357.05,169.13L357.3,161.1L357.42,225.23L357.79,180.36L357.91,174.28L358.4,149.98L358.52,235.59L358.77,223.74L358.89,211.76L359.26,163.72L359.38,229.35L359.5,171.72L359.63,252.29L360.36,180.58L360.49,221.61L360.61,166.23L360.73,243.37L361.22,187.54L361.34,216.06L361.47,157.33L361.83,244.63L362.08,208.23L362.2,223.46L362.81,158.6L363.06,180.2L363.18,185.33L363.3,210.22L363.67,164.65L363.79,202.55L363.92,159.27L364.41,215.18L364.65,195.42L364.77,140.82L364.9,200.88L365.51,198.92L365.63,164.58L365.88,163L366,223.88L366.37,189.91L366.49,187.64L366.73,159.45L366.86,214.47L366.98,158.89L367.71,225.71L367.84,173.09L368.08,165.05L368.2,235.75L368.57,200.31L368.69,192.04L369.18,167.07L369.31,232.68L369.43,181.25L369.8,179.69L370.17,242.54L370.29,179.93L370.41,248.75L371.02,236.13L371.15,167.56L371.27,235.64L371.88,227.44L372,188.39L372.13,236.53L372.49,163.14L372.74,191.11L372.86,218.34L373.11,195.37L373.23,232L373.35,173.81L373.47,234.27L374.09,217.57L374.21,185.36L374.45,181.94L374.58,259.47L374.94,234.28L375.07,212.55L375.56,189.5L375.68,265.12L375.92,255.15L376.05,247.52L376.29,269.61L376.41,215.27L376.54,274.19L376.66,194.25L377.27,220.13L377.39,260.81L377.64,266.46L377.76,211.04L378.13,236.9L378.25,234.78L378.74,262.19L378.86,190.89L378.99,266.4L379.72,187.23L379.84,253.83L380.58,187.1L380.7,228.81L381.07,176.02L381.19,242.56L381.44,211.18L381.56,238.87L381.93,174.4L382.3,235.66L382.42,230.86L382.54,229.79L382.66,235.28L382.79,194.08L383.15,264.37L383.52,232.4L383.64,231.65L384.13,200.48L384.26,278.49L384.38,224.42L384.5,264.17L384.99,219.17L385.11,260.9L385.24,206.16L385.36,268.47L385.97,256.83L386.09,206.87L386.34,202.15L386.46,279.68L386.83,253.67L386.95,236.33L387.44,200.59L387.56,273.11L387.69,219.11L388.3,202.52L388.42,270.73L388.54,208.42L388.67,272.75L389.28,232.06L389.4,178.95L390.14,254.53L390.26,203.62L390.51,180.76L390.87,260.18L391.12,235.4L391.24,260.62L391.61,201.38L391.73,262.33L391.85,211.69L391.98,266.68L392.59,271.54L392.71,209.92L392.83,267.32L392.96,222.23L393.45,278.79L393.57,222.29L393.69,284.5L393.81,213.17L393.94,296.64L394.43,234.94L394.55,243.19L394.79,272.73L394.92,215.31L395.04,295.66L395.77,214.26L395.9,279.71L396.02,205.28L396.63,214.17L396.75,236.01L397.12,160.01L397.24,253.93L397.49,222.33L397.61,239.11L397.86,242.59L398.22,185.83L398.35,248.18L398.96,255.67L399.08,191.15L399.2,257.28L399.33,193.07L399.45,257.54L399.94,218.43L400.06,245.04L400.19,202.12L400.55,261.75L400.8,230.25L400.92,268.31L401.17,271.89L401.29,206.18L401.66,256.78L401.78,258.37L402.02,277.8L402.39,213.73L402.51,292.84L403.25,218.86L403.37,293.96L403.49,216.93L404.11,245.34L404.23,283.45L404.6,216.29L404.72,292.28L404.96,251.32L405.09,280.61L405.7,217.32L405.82,273.01L405.94,242.96L406.19,253.88L406.31,219.51L406.56,208.87L406.92,274.96L407.05,245.93L407.17,250.76L407.29,267.32L407.41,217.21L407.54,265.98L407.66,209.08L407.78,279.12L407.9,203.08L408.39,273.33L408.52,222.28L408.76,202.28L408.88,271.4L409.25,255.24L409.37,243.99L409.86,201.95L409.99,288.96L410.11,226.64L410.6,287.62L410.72,223.85L410.85,281.96L410.97,216.81L411.09,295.58L411.7,293.45L411.83,228.9L412.07,223.4L412.19,300.77L412.56,288.1L412.68,253.51L413.17,225.87L413.3,301.69L413.42,251.65L413.54,265.99L413.66,280.47L413.79,245.75L413.91,271.88L414.03,213.02L414.15,294.89L414.77,249.92L414.89,224.81L415.38,213.79L415.5,275.19L415.62,238.22L415.75,246.24L415.87,270.67L416.24,204.61L416.36,262.09L416.48,214.38L416.6,274.97L417.22,267.44L417.34,199.88L418.07,267.79L418.2,222.72L418.44,209.96L418.56,287.63L418.93,252.18L419.05,236.02L419.54,210.89L419.67,294.35L419.79,235.39L419.91,252.28L420.16,249.45L420.28,271.55L420.4,223.51L420.65,222.76L420.77,292.07L421.14,276.58L421.26,233.3L421.75,219.04L421.87,292.1L422,237.81L422.12,266.48L422.24,265.99L422.36,239.71L422.73,291.3L422.85,210.26L423.1,238.14L423.22,251.46L423.34,269.37L423.47,225.75L423.59,265.3L423.71,203.22L424.08,272.79L424.45,262.6L424.57,214.87L424.81,195.06L425.18,265.21L425.3,240.22L425.43,242.8L425.92,201.69L426.04,276.55L426.16,211.31L426.9,278.62L427.02,216.02L427.14,283.2L427.75,280.84L427.88,230.85L428.12,226.31L428.24,297.79L428.61,282.6L428.73,257.79L429.22,223.78L429.35,309.01L429.47,250.4L429.96,303.18L430.08,236.66L430.21,296.83L430.33,232.44L431.06,290.82L431.19,229.25L431.43,228.31L431.55,299.02L431.92,271.95L432.04,232.1L432.53,216.61L432.66,286.26L432.78,248.98L432.9,254.15L433.27,271.94L433.39,207.69L433.51,278.51L433.64,208.82L433.76,282.14L434.25,226.77L434.37,241.82L434.49,201.36L434.62,268.38L435.11,242.18L435.23,269.09L435.47,279.31L435.6,211.01L435.96,268.99L436.09,257.55L436.33,279.46L436.7,215.21L436.82,291.53L436.94,224.37L437.56,225.42L437.68,280.45L437.8,214.47L437.92,285.06L438.41,246.66L438.54,280.67L438.78,286.63L438.9,217.9L439.27,267.81L439.39,263.08L439.64,285.01L440.01,215.23L440.13,286.31L440.87,211.68L440.99,275.42L441.11,217.87L441.72,223.24L441.85,257.19L441.97,207.18L442.09,275.53L442.58,239.77L442.7,268.69L443.07,205.12L443.19,273.28L443.44,269.62L443.56,249.69L443.68,244.87L443.81,277.04L444.17,213.27L444.3,290.17L444.54,272.04L444.66,264.83L444.91,278.92L445.28,217.61L445.4,298.25L446.13,230.54L446.26,295.44L446.38,227.38L446.99,253.65L447.11,297.32L447.36,303.47L447.48,221.82L447.85,266.79L447.97,277.63L448.46,299.65L448.58,223.79L448.71,300.81L449.44,213.64L449.56,287.11L449.69,219.56L450.3,220.9L450.42,246.67L450.55,193.73L450.91,253.85L451.16,239.62L451.28,262.01L451.65,193.11L452.02,232.05L452.14,228.47L452.26,221.72L452.38,245.52L452.51,189.96L452.75,186.23L452.87,262.63L453.24,212.73L453.36,203.39L453.61,182.31L453.98,261.95L454.22,248.56L454.34,245.57L454.83,258.16L454.96,195.47L455.08,274.64L455.69,276.11L455.81,218.75L455.94,280.46L456.06,210.12L456.18,284.73L456.67,224.31L456.79,273.58L456.92,207.04L457.04,286.97L457.53,237.41L457.65,251.88L458.02,198.8L458.14,272.74L458.26,204.94L458.39,278.93L459.12,193.31L459.24,267.42L459.37,207.27L459.98,212.33L460.1,245.63L460.23,187.22L460.35,247.92L460.84,231.99L460.96,255.84L461.33,197.68L461.45,267.99L461.7,251.54L461.82,234.05L461.94,231.06L462.06,261.88L462.43,203.93L462.55,280.56L462.68,214.3L462.8,265.92L463.29,215.5L463.41,276.25L463.53,204.51L463.66,279.98L464.15,240.26L464.27,282.71L464.51,285.04L464.64,211.78L465,261.89L465.13,257.05L465.62,283.77L465.74,211.86L465.86,285.09L466.6,189.81L466.72,262.66L466.84,199.98L467.45,211.09L467.58,249.9L467.94,187.31L468.31,214.96L468.43,242.14L468.8,180.27L468.92,248.79L469.17,239.06L469.29,220.28L469.54,228.47L469.9,173.33L470.03,244.13L470.15,185.56L470.76,186.12L470.89,239.11L471.01,173.05L471.62,213.95L471.74,245.25L472.11,160.69L472.48,214.48L472.6,224.53L472.85,245.14L472.97,172.15L473.46,181.94L473.58,214.93L473.7,224.5L473.83,185.99L473.95,204.52L474.07,159.46L474.44,227.01L474.81,216.28L474.93,187.12L475.17,166.26L475.3,238.51L475.54,220.99L475.66,170.51L476.03,148.46L476.4,224.22L476.52,157.47L476.64,201.43L476.89,130.07L477.26,195.66L477.38,137.78L477.5,206.48L478.11,177.69L478.24,138.82L478.6,206.29L478.97,168.83L479.09,150.54L479.34,134.25L479.71,210.75L480.08,202.9L480.2,182.33L480.32,209.76L480.69,143.18L480.81,208.16L480.93,169.26L481.18,214.21L481.55,167.69L481.67,213.22L481.79,147.16L482.53,223.27L482.65,174.35L482.77,233.4L482.89,168.32L483.38,199.87L483.51,165.3L483.87,227L484,156.43L484.24,174.29L484.36,169.1L484.61,147.83L484.73,180.33L484.85,133.67L484.98,200.61L485.59,186.56L485.71,140.24L485.96,119.25L486.69,194.74L486.81,146.83L487.06,124.99L487.18,191.51L487.55,165.66L487.67,154.04L488.16,139.34L488.28,208.06L488.41,154.49L488.53,179.1L488.9,182.76L489.02,130.01L489.14,179.32L489.26,125.02L489.39,190.37L489.88,135.07L490,152.94" style="vector-effect: none; fill: none; stroke: rgb(0, 0, 0); stroke-opacity: 1; stroke-dasharray: 9px, 9px; stroke-width: 1px; opacity: 1;"/></g><g class="points"/><g class="text"/></g></g></g><g class="overplot"/><path class="xlines-above crisp" d="M78,433H572M78,99H572" style="fill: none; stroke-width: 2px; stroke: rgb(0, 0, 0); stroke-opacity: 1;"/><path class="ylines-above crisp" d="M79,100V432M571,100V432" style="fill: none; stroke-width: 2px; stroke: rgb(0, 0, 0); stroke-opacity: 1;"/><g class="overlines-above"/><g class="xaxislayer-above"><g class="xtick"><text text-anchor="middle" x="0" y="448.4" transform="translate(80,0)" style="font-family: 'Open Sans', verdana, arial, sans-serif; font-size: 12px; fill: rgb(42, 63, 95); fill-opacity: 1; white-space: pre; opacity: 1;">1995</text></g><g class="xtick"><text text-anchor="middle" x="0" y="448.4" style="font-family: 'Open Sans', verdana, arial, sans-serif; font-size: 12px; fill: rgb(42, 63, 95); fill-opacity: 1; white-space: pre; opacity: 1;" transform="translate(167.5,0)">2000</text></g><g class="xtick"><text text-anchor="middle" x="0" y="448.4" style="font-family: 'Open Sans', verdana, arial, sans-serif; font-size: 12px; fill: rgb(42, 63, 95); fill-opacity: 1; white-space: pre; opacity: 1;" transform="translate(255.04,0)">2005</text></g><g class="xtick"><text text-anchor="middle" x="0" y="448.4" style="font-family: 'Open Sans', verdana, arial, sans-serif; font-size: 12px; fill: rgb(42, 63, 95); fill-opacity: 1; white-space: pre; opacity: 1;" transform="translate(342.54,0)">2010</text></g><g class="xtick"><text text-anchor="middle" x="0" y="448.4" style="font-family: 'Open Sans', verdana, arial, sans-serif; font-size: 12px; fill: rgb(42, 63, 95); fill-opacity: 1; white-space: pre; opacity: 1;" transform="translate(430.03,0)">2015</text></g><g class="xtick"><text text-anchor="middle" x="0" y="448.4" style="font-family: 'Open Sans', verdana, arial, sans-serif; font-size: 12px; fill: rgb(42, 63, 95); fill-opacity: 1; white-space: pre; opacity: 1;" transform="translate(517.53,0)">2020</text></g></g><g class="yaxislayer-above"><g class="ytick"><text text-anchor="end" x="76.4" y="2.8" transform="translate(0,415)" style="font-family: 'Open Sans', verdana, arial, sans-serif; font-size: 8px; fill: rgb(42, 63, 95); fill-opacity: 1; white-space: pre; opacity: 1;">2.00e14</text></g><g class="ytick"><text text-anchor="end" x="76.4" y="2.8" style="font-family: 'Open Sans', verdana, arial, sans-serif; font-size: 8px; fill: rgb(42, 63, 95); fill-opacity: 1; white-space: pre; opacity: 1;" transform="translate(0,374.84)">5.00e14</text></g><g class="ytick"><text text-anchor="end" x="76.4" y="2.8" style="font-family: 'Open Sans', verdana, arial, sans-serif; font-size: 8px; fill: rgb(42, 63, 95); fill-opacity: 1; white-space: pre; opacity: 1;" transform="translate(0,344.47)">1.00e13</text></g><g class="ytick"><text text-anchor="end" x="76.4" y="2.8" style="font-family: 'Open Sans', verdana, arial, sans-serif; font-size: 8px; fill: rgb(42, 63, 95); fill-opacity: 1; white-space: pre; opacity: 1;" transform="translate(0,314.09000000000003)">2.00e13</text></g><g class="ytick"><text text-anchor="end" x="76.4" y="2.8" style="font-family: 'Open Sans', verdana, arial, sans-serif; font-size: 8px; fill: rgb(42, 63, 95); fill-opacity: 1; white-space: pre; opacity: 1;" transform="translate(0,273.94)">5.00e13</text></g><g class="ytick"><text text-anchor="end" x="76.4" y="2.8" style="font-family: 'Open Sans', verdana, arial, sans-serif; font-size: 8px; fill: rgb(42, 63, 95); fill-opacity: 1; white-space: pre; opacity: 1;" transform="translate(0,243.57)">1.00e12</text></g><g class="ytick"><text text-anchor="end" x="76.4" y="2.8" style="font-family: 'Open Sans', verdana, arial, sans-serif; font-size: 8px; fill: rgb(42, 63, 95); fill-opacity: 1; white-space: pre; opacity: 1;" transform="translate(0,213.19)">2.00e12</text></g><g class="ytick"><text text-anchor="end" x="76.4" y="2.8" style="font-family: 'Open Sans', verdana, arial, sans-serif; font-size: 8px; fill: rgb(42, 63, 95); fill-opacity: 1; white-space: pre; opacity: 1;" transform="translate(0,173.04000000000002)">5.00e12</text></g><g class="ytick"><text text-anchor="end" x="76.4" y="2.8" style="font-family: 'Open Sans', verdana, arial, sans-serif; font-size: 8px; fill: rgb(42, 63, 95); fill-opacity: 1; white-space: pre; opacity: 1;" transform="translate(0,142.66)">1.00e11</text></g><g class="ytick"><text text-anchor="end" x="76.4" y="2.8" style="font-family: 'Open Sans', verdana, arial, sans-serif; font-size: 8px; fill: rgb(42, 63, 95); fill-opacity: 1; white-space: pre; opacity: 1;" transform="translate(0,112.28999999999999)">2.00e11</text></g></g><g class="overaxes-above"/></g></g><g class="polarlayer"/><g class="smithlayer"/><g class="ternarylayer"/><g class="geolayer"/><g class="funnelarealayer"/><g class="pielayer"/><g class="iciclelayer"/><g class="treemaplayer"/><g class="sunburstlayer"/><g class="glimages"/><defs id="topdefs-0fa7d8"><g class="clips"/><clipPath id="legend0fa7d8"><rect width="152" height="48" x="0" y="0"/></clipPath></defs><g class="layer-above"><g class="imagelayer"/><g class="shapelayer"/></g><g class="infolayer"><g class="legend" pointer-events="all" transform="translate(325,103.32000000000001)"><rect class="bg" shape-rendering="crispEdges" width="152" height="48" x="0" y="0" style="stroke: rgb(68, 68, 68); stroke-opacity: 1; fill: rgb(255, 255, 255); fill-opacity: 1; stroke-width: 0px;"/><g class="scrollbox" transform="" clip-path="url(#legend0fa7d8)"><g class="groups"><g class="traces" transform="translate(0,14.5)" style="opacity: 1;"><text class="legendtext" text-anchor="start" x="40" y="4.680000000000001" style="font-family: 'Open Sans', verdana, arial, sans-serif; font-size: 12px; fill: rgb(42, 63, 95); fill-opacity: 1; white-space: pre;">Altitude = 400km</text><g class="layers" style="opacity: 1;"><g class="legendfill"/><g class="legendlines"><path class="js-line" d="M5,0h30" style="fill: none; stroke: rgb(0, 0, 0); stroke-opacity: 1; stroke-width: 1px;"/></g><g class="legendsymbols"><g class="legendpoints"/></g></g><rect class="legendtoggle" x="0" y="-9.5" width="146.390625" height="19" style="fill: rgb(0, 0, 0); fill-opacity: 0;"/></g><g class="traces" transform="translate(0,33.5)" style="opacity: 1;"><text class="legendtext" text-anchor="start" x="40" y="4.680000000000001" style="font-family: 'Open Sans', verdana, arial, sans-serif; font-size: 12px; fill: rgb(42, 63, 95); fill-opacity: 1; white-space: pre;">Altitude = 500km</text><g class="layers" style="opacity: 1;"><g class="legendfill"/><g class="legendlines"><path class="js-line" d="M5,0h30" style="fill: none; stroke: rgb(0, 0, 0); stroke-opacity: 1; stroke-dasharray: 9px, 9px; stroke-width: 1px;"/></g><g class="legendsymbols"><g class="legendpoints"/></g></g><rect class="legendtoggle" x="0" y="-9.5" width="146.390625" height="19" style="fill: rgb(0, 0, 0); fill-opacity: 0;"/></g></g></g><rect class="scrollbar" rx="20" ry="3" width="0" height="0" x="0" y="0" style="fill: rgb(128, 139, 164); fill-opacity: 1;"/></g><g class="g-gtitle"><text class="gtitle" x="32.5" y="50" text-anchor="start" dy="0em" style="font-family: 'Open Sans', verdana, arial, sans-serif; font-size: 17px; fill: rgb(42, 63, 95); opacity: 1; font-weight: normal; white-space: pre;">Air Density Changes with Solar Cycle</text></g><g class="g-xtitle"><text class="xtitle" x="325" y="475.20625" text-anchor="middle" style="font-family: 'Open Sans', verdana, arial, sans-serif; font-size: 14px; fill: rgb(42, 63, 95); opacity: 1; font-weight: normal; white-space: pre;">Year</text></g><g class="g-ytitle" transform="translate(2.9560546875,0)"><text class="ytitle" transform="rotate(-90,12.934375000000003,266)" x="12.934375000000003" y="266" text-anchor="middle" style="font-family: 'Open Sans', verdana, arial, sans-serif; font-size: 14px; fill: rgb(42, 63, 95); opacity: 1; font-weight: normal; white-space: pre;">Density [kg/m<tspan style="font-size:70%" dy="-0.6em">3</tspan><tspan dy="0.42em"></tspan>]</text></g></g></svg>